<svg width="48" height="48" viewBox="0 0 48 48" fill="none" xmlns="http://www.w3.org/2000/svg">
<path fill-rule="evenodd" clip-rule="evenodd" d="M48 24C48 10.7452 37.2548 0 24 0C10.7452 0 0 10.7452 0 24C0 37.2548 10.7452 48 24 48C37.2548 48 48 37.2548 48 24ZM45 24C45 12.402 35.598 3 24 3C12.402 3 3 12.402 3 24C3 35.598 12.402 45 24 45C35.598 45 45 35.598 45 24Z"/>
<path fill-rule="evenodd" clip-rule="evenodd" d="M23.2501 37.5094C23.2501 37.9236 23.5859 38.2594 24.0001 38.2594C24.4143 38.2594 24.7501 37.9236 24.7501 37.5094C24.7501 37.0952 24.4143 36.7594 24.0001 36.7594C23.5859 36.7594 23.2501 37.0952 23.2501 37.5094ZM28.8745 37.1718C28.4929 37.0098 28.3148 36.5694 28.4767 36.188C28.6386 35.8067 29.0791 35.6288 29.4606 35.7908C29.8422 35.9528 30.0203 36.3932 29.8584 36.7745C29.6965 37.1559 29.256 37.3337 28.8745 37.1718ZM33.0183 33.0234C32.7252 33.3164 32.7252 33.7915 33.0183 34.0845C33.3113 34.3776 33.7864 34.3776 34.0794 34.0845C34.3724 33.7915 34.3724 33.3164 34.0794 33.0234C33.7864 32.7304 33.3113 32.7304 33.0183 33.0234ZM35.7815 29.4536C35.6264 29.0696 35.8119 28.6324 36.196 28.4773C36.58 28.3221 37.0172 28.5076 37.1723 28.8917C37.3275 29.2757 37.1419 29.7129 36.7579 29.868C36.3738 30.0232 35.9367 29.8377 35.7815 29.4536ZM37.5048 23.2547C37.0905 23.2547 36.7548 23.5905 36.7548 24.0047C36.7548 24.4189 37.0905 24.7546 37.5048 24.7546C37.919 24.7546 38.2548 24.4189 38.2548 24.0047C38.2548 23.5905 37.919 23.2547 37.5048 23.2547ZM35.7855 18.5431C35.9473 18.1618 36.3878 17.9839 36.7694 18.1459C37.1509 18.3078 37.329 18.7482 37.1671 19.1296C37.0052 19.5109 36.5647 19.6888 36.1832 19.5268C35.8017 19.3649 35.6236 18.9244 35.7855 18.5431ZM28.8872 10.8326C29.2713 10.6775 29.7084 10.863 29.8636 11.2471C30.0187 11.6311 29.8332 12.0682 29.4492 12.2234C29.0651 12.3786 28.628 12.193 28.4728 11.809C28.3176 11.4249 28.5032 10.9878 28.8872 10.8326ZM24.0001 9.75002C24.4143 9.75002 24.7501 10.0858 24.7501 10.5C24.7501 10.9142 24.4143 11.25 24.0001 11.25C23.5859 11.25 23.2501 10.9142 23.2501 10.5C23.2501 10.0858 23.5859 9.75002 24.0001 9.75002ZM19.1129 37.1768C18.7289 37.332 18.2917 37.1464 18.1366 36.7624C17.9814 36.3783 18.167 35.9412 18.551 35.786C18.9351 35.6308 19.3722 35.8164 19.5274 36.2004C19.6825 36.5845 19.497 37.0216 19.1129 37.1768ZM13.9203 34.0851C14.2133 34.3781 14.6884 34.3781 14.9814 34.0851C15.2745 33.792 15.2745 33.3169 14.9814 33.0239C14.6884 32.7309 14.2133 32.7309 13.9203 33.0239C13.6273 33.3169 13.6273 33.792 13.9203 34.0851ZM12.2147 29.4663C12.0528 29.8476 11.6123 30.0255 11.2307 29.8635C10.8492 29.7016 10.6711 29.2612 10.833 28.8798C10.9949 28.4985 11.4354 28.3206 11.8169 28.4826C12.1985 28.6445 12.3765 29.085 12.2147 29.4663ZM10.4954 24.7547C10.9096 24.7547 11.2454 24.4189 11.2454 24.0047C11.2454 23.5905 10.9096 23.2547 10.4954 23.2547C10.0811 23.2547 9.74536 23.5905 9.74536 24.0047C9.74536 24.4189 10.0811 24.7547 10.4954 24.7547ZM12.2189 18.5557C12.374 18.9398 12.1885 19.3769 11.8044 19.5321C11.4204 19.6872 10.9832 19.5017 10.8281 19.1176C10.6729 18.7336 10.8585 18.2965 11.2425 18.1413C11.6266 17.9861 12.0637 18.1717 12.2189 18.5557ZM14.9818 14.986C15.2748 14.693 15.2748 14.2179 14.9818 13.9249C14.6888 13.6319 14.2137 13.6319 13.9207 13.9249C13.6277 14.2179 13.6277 14.693 13.9207 14.986C14.2137 15.279 14.6888 15.279 14.9818 14.986ZM19.1256 10.8376C19.5072 10.9995 19.6853 11.44 19.5234 11.8213C19.3615 12.2027 18.921 12.3805 18.5395 12.2186C18.1579 12.0566 17.9798 11.6162 18.1417 11.2348C18.3036 10.8535 18.7441 10.6756 19.1256 10.8376ZM35.8001 14.4501C35.8001 13.2074 34.7928 12.2 33.5501 12.2C32.3075 12.2 31.3001 13.2074 31.3001 14.4501C31.3001 15.6927 32.3075 16.7001 33.5501 16.7001C34.7928 16.7001 35.8001 15.6927 35.8001 14.4501ZM24.0001 18C27.3138 18 30.0001 20.6863 30.0001 24C30.0001 27.3137 27.3138 30 24.0001 30C20.6864 30 18.0001 27.3137 18.0001 24C18.0001 20.6863 20.6864 18 24.0001 18ZM28.5001 24C28.5001 21.5147 26.4853 19.5 24.0001 19.5C21.5148 19.5 19.5001 21.5147 19.5001 24C19.5001 26.4853 21.5148 28.5 24.0001 28.5C26.4853 28.5 28.5001 26.4853 28.5001 24Z"/>
</svg>
